HIERARCHY
ROOT root
{
	OFFSET	0	13.1	24.9
	CHANNELS 6  Xposition Yposition Zposition Xrotation Yrotation Zrotation
	JOINT spine_1
	{
		OFFSET	0	9.99999	0
		CHANNELS 3  Xrotation Yrotation Zrotation
		JOINT spine_2
		{
			OFFSET	0	112	-10
			CHANNELS 3  Xrotation Yrotation Zrotation
			JOINT spine_3
			{
				OFFSET	0	206.5	19.3
				CHANNELS 3  Xrotation Yrotation Zrotation
				JOINT spine_4
				{
					OFFSET	0	110.4	14.6
					CHANNELS 3  Xrotation Yrotation Zrotation
					JOINT neck_1
					{
						OFFSET	0	71.8	-50.3
						CHANNELS 3  Xrotation Yrotation Zrotation
						JOINT neck_2
						{
							OFFSET	0	86.2	-25.8
							CHANNELS 3  Xrotation Yrotation Zrotation
							JOINT head_ee
							{
								OFFSET	0	179.8	-8.7
								CHANNELS 3  Xrotation Yrotation Zrotation
								End Site
								{
									OFFSET	1	0	0
								}
							}
						}
					}
					JOINT left_clavicle
					{
						OFFSET	-43.2	22.4	-70.8
						CHANNELS 3  Xrotation Yrotation Zrotation
						JOINT left_shoulder
						{
							OFFSET	-93.9	-5.79999	48.7
							CHANNELS 3  Xrotation Yrotation Zrotation
							JOINT left_elbow
							{
								OFFSET	-291.4	-30.8	15.2
								CHANNELS 3  Xrotation Yrotation Zrotation
								JOINT left_lowarm_twist
								{
									OFFSET	-110.7	-3.89999	13.6
									CHANNELS 3  Xrotation Yrotation Zrotation
									JOINT left_hand
									{
										OFFSET	-110.7	-3.89999	13.6
										CHANNELS 3  Xrotation Yrotation Zrotation
										JOINT left_ee
										{
											OFFSET	-80.8	-5.10001	12.1
											CHANNELS 3  Xrotation Yrotation Zrotation
											End Site
											{
												OFFSET	1	0	0
											}
										}
									}
								}
							}
						}
					}
					JOINT right_clavicle
					{
						OFFSET	43.2	22.4	-70.8
						CHANNELS 3  Xrotation Yrotation Zrotation
						JOINT right_shoulder
						{
							OFFSET	93.9	-5.79999	48.7
							CHANNELS 3  Xrotation Yrotation Zrotation
							JOINT right_elbow
							{
								OFFSET	291.4	-30.8	15.2
								CHANNELS 3  Xrotation Yrotation Zrotation
								JOINT right_lowarm_twist
								{
									OFFSET	110.7	-3.89999	13.6
									CHANNELS 3  Xrotation Yrotation Zrotation
									JOINT right_hand
									{
										OFFSET	110.7	-3.89999	13.6
										CHANNELS 3  Xrotation Yrotation Zrotation
										JOINT right_ee
										{
											OFFSET	80.8	-5.10001	12.1
											CHANNELS 3  Xrotation Yrotation Zrotation
											End Site
											{
												OFFSET	1	0	0
											}
										}
									}
								}
							}
						}
					}
				}
			}
		}
	}
	JOINT left_hip
	{
		OFFSET	-82.8	-127.5	0.300001
		CHANNELS 3  Xrotation Yrotation Zrotation
		JOINT left_knee
		{
			OFFSET	-28.2	-396.7	2.2
			CHANNELS 3  Xrotation Yrotation Zrotation
			JOINT left_ankle
			{
				OFFSET	-11.7	-411.3	35.4
				CHANNELS 3  Xrotation Yrotation Zrotation
				JOINT left_toes
				{
					OFFSET	0	-60	-88.6
					CHANNELS 3  Xrotation Yrotation Zrotation
					JOINT left_foot_ee
					{
						OFFSET	-22.5	-16.5	-42.2
						CHANNELS 3  Xrotation Yrotation Zrotation
						End Site
						{
							OFFSET	1	0	0
						}
					}
				}
			}
		}
	}
	JOINT right_hip
	{
		OFFSET	82.8	-127.5	0.300001
		CHANNELS 3  Xrotation Yrotation Zrotation
		JOINT right_knee
		{
			OFFSET	28.2	-396.7	2.2
			CHANNELS 3  Xrotation Yrotation Zrotation
			JOINT right_ankle
			{
				OFFSET	11.7	-411.3	35.4
				CHANNELS 3  Xrotation Yrotation Zrotation
				JOINT right_toes
				{
					OFFSET	0	-60	-88.6
					CHANNELS 3  Xrotation Yrotation Zrotation
					JOINT right_foot_ee
					{
						OFFSET	22.5	-16.5	-42.2
						CHANNELS 3  Xrotation Yrotation Zrotation
						End Site
						{
							OFFSET	1	0	0
						}
					}
				}
			}
		}
	}
}
MOTION
Frames: 15
Frame Time: 0.02
3961.53 668.016 -387.01 -31.9237 34.5582 21.9758 11.4006 0.26559 -0.516011 11.4007 0.297886 -0.498065 11.3979 0.30426 -0.494197 11.3977 0.222393 -0.536046 -27.3704 4.96057 -1.27059 -27.6008 10.0185 1.54433 -0.0 0.0 -0.0 4.43803 4.11447 8.71904 -54.3057 -54.4959 52.9902 0.234572 -6.6282 0.0135832 -60.2588 -5.31495 5.10916 -3.22087 7.70087 -17.9982 -0.0 0.0 -0.0 9.15463 0.486939 -17.9375 -42.7312 50.0313 -53.1192 0.313716 8.83361 -0.0242317 -37.8733 2.72789 -3.90377 3.71803 25.79 -13.184 0.0 0.0 0.0 49.8024 38.3607 -17.4116 -15.8945 0.321933 2.41013 36.4766 -31.6465 -5.67546 0.0551743 -0.0 -0.0 -0.0 0.0 -0.0 44.498 55.115 -16.7525 -9.6221 -0.275008 -1.44935 37.9138 15.12 4.98074 39.8183 -0.0 -0.0 0.0 0.0 0.0 
3961.34 669.266 -383.009 -33.4715 35.3505 22.3202 11.4478 0.293871 -0.50911 11.4479 0.325671 -0.489379 11.445 0.331533 -0.485427 11.4447 0.250709 -0.531693 -26.8839 4.60101 0.462891 -27.0532 8.67301 2.91837 -0.0 0.0 -0.0 4.51189 4.10844 8.85693 -55.8346 -55.2263 53.9745 0.280161 -7.90143 0.0193487 -60.5348 -5.34933 5.11752 -2.51597 6.16387 -14.01 -0.0 0.0 -0.0 9.50021 3.04093 -18.7242 -41.0923 50.9547 -54.0853 0.216083 6.10988 -0.0115322 -35.0508 2.44085 -3.68303 3.64701 26.0847 -12.5558 0.0 0.0 0.0 47.6746 32.2671 -12.711 -16.0518 0.321757 2.43426 35.3974 -26.3455 -5.21731 -0.370882 0.0 0.0 -0.0 0.0 -0.0 41.2743 48.6461 -12.6303 -9.04087 -0.26534 -1.36069 37.8771 18.5566 5.09875 40.1301 -0.0 -0.0 0.0 0.0 0.0 
3966.66 670.288 -380.853 -32.7817 34.6425 21.5888 11.1318 0.333057 -0.564466 11.1319 0.3683 -0.54213 11.1283 0.377763 -0.535579 11.128 0.288439 -0.588516 -26.637 4.89872 1.18415 -26.8115 8.96436 3.73013 -0.0 0.0 -0.0 4.30372 4.79643 8.49086 -57.5467 -55.6006 54.2098 0.304183 -8.56924 0.0227896 -60.3205 -5.32264 5.11105 -2.61424 4.28445 -15.6226 -0.0 0.0 -0.0 11.052 8.62187 -22.1517 -43.3816 49.0169 -52.5084 0.268934 7.58856 -0.0178356 -34.3545 2.37174 -3.62642 3.20524 23.3392 -11.1067 0.0 0.0 0.0 48.5857 29.4442 -13.7171 -19.6819 0.299288 2.99068 33.1244 -26.5027 -4.97699 2.5008 -0.0 -0.0 -0.0 0.0 -0.0 40.9254 56.6748 -13.3998 -4.95897 -0.172176 -0.741341 36.8959 13.2378 4.82867 40.0864 -0.0 -0.0 0.0 0.0 0.0 
3968.48 666.861 -375.825 -33.2852 34.6138 21.7472 10.9593 -0.00934939 -0.554394 10.9595 0.0259465 -0.553865 10.9588 0.0372894 -0.553218 10.9584 -0.0505476 -0.552164 -25.5493 5.53539 1.22526 -25.7614 10.1631 4.00716 -0.0 0.0 -0.0 3.90527 4.84924 7.75503 -56.0268 -55.8427 56.8995 0.290991 -8.20278 0.0208657 -57.8364 -5.01497 5.02874 -2.70828 2.7258 -17.0539 -0.0 0.0 -0.0 11.8308 18.3365 -23.6544 -42.1132 50.2039 -56.3636 0.28509 8.03862 -0.020032 -30.4333 1.99587 -3.29243 1.49478 11.0253 -5.40513 0.0 0.0 0.0 46.0313 21.038 -9.25492 -20.9922 0.282526 3.19103 29.1617 -22.6906 -4.33506 3.49264 -0.0 -0.0 -0.0 0.0 -0.0 38.6982 58.0013 -10.7208 -1.55254 -0.0608053 -0.230494 37.2627 13.2025 4.86228 40.1364 -0.0 -0.0 0.0 0.0 0.0 
3974.7 663.665 -382.408 -33.2959 36.1023 22.3348 10.962 0.00674729 -0.441844 10.9621 0.034849 -0.440519 10.9615 0.0438466 -0.439715 10.9613 -0.0261477 -0.441121 -26.2211 5.57232 2.09361 -26.4208 9.89499 4.89863 -0.0 0.0 -0.0 3.48345 4.53356 6.96049 -60.0904 -57.5916 51.6257 0.356826 -10.0243 0.0312946 -58.3571 -5.07916 5.0471 -2.43702 0.926513 -16.0587 -0.0 0.0 -0.0 12.3522 21.5653 -24.6241 -42.2295 50.5164 -57.0289 0.311827 8.78128 -0.0239427 -30.8544 2.03512 -3.32951 1.94253 11.5356 -8.221 0.0 0.0 0.0 46.2772 24.0702 -9.64516 -23.1964 0.244005 3.52705 28.3291 -23.4031 -4.26447 4.16026 -0.0 -0.0 -0.0 0.0 -0.0 38.3277 57.9513 -11.0691 -0.584619 -0.0236306 -0.086604 38.2206 12.4578 4.93046 40.1595 -0.0 -0.0 0.0 0.0 0.0 
3978.08 662.44 -380.39 -33.1074 37.0854 22.1813 10.5964 -0.00863038 -0.463491 10.5965 0.0208799 -0.463101 10.5961 0.0332917 -0.462374 10.5958 -0.0401488 -0.461829 -25.1152 6.94822 2.30127 -25.4165 12.4311 5.69729 -0.0 0.0 -0.0 3.62151 5.51223 7.26066 -64.7255 -59.3531 46.8045 0.464193 -12.9501 0.0526839 -57.8029 -5.01085 5.02754 -2.11093 4.38512 -12.1531 -0.0 0.0 -0.0 13.2582 25.6083 -26.3207 -42.0203 50.3474 -57.605 0.242032 6.83703 -0.0144578 -29.8781 1.94453 -3.2431 1.4859 12.3536 -4.76462 0.0 0.0 0.0 45.6178 19.4261 -8.47016 -24.9146 0.205026 3.78783 29.1273 -17.5057 -4.14242 2.84034 -0.0 -0.0 -0.0 0.0 -0.0 38.1724 60.6704 -11.1869 -0.662923 -0.0267287 -0.0982215 38.8618 9.6394 4.91859 40.1595 -0.0 -0.0 0.0 0.0 0.0 
3977.95 663.863 -384.263 -32.9772 37.5836 22.8993 10.3624 -0.0425836 -0.668446 10.3626 3.66589e-05 -0.669801 10.3621 0.0207333 -0.66948 10.3614 -0.0852564 -0.664353 -24.2486 6.34429 1.97585 -24.4882 11.3809 4.97956 -0.0 0.0 -0.0 3.57849 5.19416 7.1673 -66.3049 -61.1413 46.534 0.527756 -14.6514 0.0678482 -56.8098 -4.88889 4.99084 -2.20666 8.51881 -10.7766 -0.0 0.0 -0.0 13.4709 26.5929 -26.6958 -44.6151 52.5612 -55.8329 0.262765 7.41644 -0.0170301 -30.97 2.04594 -3.33964 1.19422 11.2166 -3.28945 0.0 0.0 0.0 45.7793 21.1728 -8.93174 -26.5499 0.160676 4.03487 28.43 -15.4328 -4.00082 1.67888 -0.0 -0.0 -0.0 0.0 -0.0 39.3418 61.686 -13.2782 -0.37696 -0.0153381 -0.055815 38.6833 6.14798 4.83457 40.1991 -0.0 -0.0 0.0 0.0 0.0 
3978.25 665.926 -387.16 -33.8933 38.9515 24.4039 10.4013 0.0327417 -0.793944 10.4017 0.0831945 -0.790252 10.3997 0.107064 -0.787374 10.3989 -0.0186267 -0.794401 -24.5976 6.38295 2.10035 -24.8426 11.4117 5.15442 -0.0 0.0 -0.0 3.64155 5.55929 7.29946 -69.3708 -62.2698 44.5298 0.537866 -14.9196 0.0704282 -55.7287 -4.75684 4.94848 -2.28178 12.1282 -9.47139 -0.0 0.0 -0.0 13.6659 26.173 -27.2012 -48.2204 53.3684 -52.6434 0.228056 6.44566 -0.0128415 -31.7865 2.12298 -3.41057 1.04698 11.9957 -1.95837 0.0 0.0 0.0 47.1867 21.1988 -9.00967 -26.9161 0.149778 4.09002 27.4334 -12.1079 -3.80342 -0.63317 0.0 0.0 -0.0 0.0 -0.0 39.7116 64.1412 -13.7019 -0.485482 -0.019686 -0.0719015 38.7305 3.58851 4.80114 40.1433 -0.0 -0.0 0.0 0.0 0.0 
3970.27 663.04 -387.004 -33.4628 38.3135 24.3126 10.3629 0.3353 -0.948809 10.3633 0.394993 -0.925553 10.3561 0.42355 -0.912839 10.355 0.274076 -0.968268 -22.786 7.41514 1.36677 -23.114 13.6805 4.77137 -0.0 0.0 -0.0 3.63709 7.63045 7.37758 -70.1784 -63.5119 43.2925 0.490134 -13.6474 0.058651 -54.9822 -4.66614 4.91778 -1.89092 15.7296 -5.23727 -0.0 0.0 -0.0 13.4641 23.9237 -26.9853 -56.6914 55.2342 -44.691 0.364922 10.247 -0.0327194 -34.7166 2.4076 -3.65597 0.534368 12.6479 1.77679 0.0 0.0 0.0 47.925 21.4218 -9.04249 -29.0544 0.0791226 4.41055 30.1579 -5.25072 -3.98262 -2.59823 0.0 0.0 -0.0 0.0 -0.0 39.8343 63.1899 -14.6794 -1.22835 -0.0486253 -0.182232 39.576 1.42536 4.85131 40.1215 -0.0 -0.0 0.0 0.0 0.0 
3971.41 659.416 -390.581 -33.6253 38.415 24.8889 10.318 0.474937 -1.01353 10.3184 0.538466 -0.981261 10.3085 0.569508 -0.963577 10.3074 0.410191 -1.04142 -22.0141 7.25758 1.36291 -22.3096 13.36 4.59034 -0.0 0.0 -0.0 2.91783 6.8789 6.05123 -69.9215 -64.7055 43.6648 0.562443 -15.5689 0.0768903 -56.7418 -4.88056 4.98825 -2.01482 15.279 -6.22454 -0.0 0.0 -0.0 13.5362 25.1046 -27.0252 -58.514 57.1084 -43.3886 0.369386 10.3696 -0.0335183 -36.1953 2.55592 -3.77423 0.521952 8.31915 0.00775421 0.0 0.0 0.0 47.2064 19.6491 -8.60167 -29.0305 0.0799783 4.40699 33.6364 -1.36701 -4.29683 -5.81856 0.0 0.0 -0.0 0.0 -0.0 41.0072 63.4016 -16.0649 -0.523997 -0.0212215 -0.0776127 40.0033 0.0976171 4.87695 40.1607 -0.0 -0.0 0.0 0.0 0.0 
3968.9 658.206 -390.176 -33.7622 38.275 25.5265 10.4299 0.56465 -1.15012 10.4304 0.636687 -1.11187 10.4171 0.669808 -1.09224 10.4158 0.488916 -1.1843 -21.6597 5.88327 0.748971 -21.8556 10.9931 3.34214 -0.0 0.0 -0.0 3.17234 6.72175 6.50139 -69.6619 -65.803 44.5932 0.496749 -13.8246 0.0602217 -57.5514 -4.9799 5.01845 -1.92672 14.5023 -6.05304 -0.0 0.0 -0.0 13.5325 25.6541 -26.953 -62.6244 58.2744 -39.5263 0.400826 11.2306 -0.0394098 -37.3245 2.67123 -3.86196 0.463838 11.3556 1.69772 0.0 0.0 0.0 48.1675 19.7173 -8.71156 -29.9197 0.0471323 4.53951 34.7005 4.14182 -4.37067 -9.71937 0.0 0.0 -0.0 0.0 -0.0 40.9162 63.5535 -16.2937 -0.475616 -0.0192916 -0.0704388 39.6002 -1.05877 4.83446 39.5925 -0.0 -0.0 0.0 0.0 0.0 
3968.42 658.225 -395.136 -34.1565 38.9778 26.1339 10.4422 0.534715 -1.20121 10.4428 0.610062 -1.16476 10.4293 0.644542 -1.14604 10.4278 0.455472 -1.23344 -21.3911 7.21996 1.67002 -21.6597 13.1227 4.7749 -0.0 0.0 -0.0 2.68711 7.47427 5.67229 -66.2131 -67.3065 47.045 0.404065 -11.3191 0.0400429 -56.8257 -4.89083 4.99144 -1.78531 15.9316 -4.4882 -0.0 0.0 -0.0 13.7911 24.9061 -27.6432 -65.9528 59.0845 -36.7139 0.405179 11.3495 -0.0402619 -38.8285 2.82744 -3.97526 -0.125233 7.74696 4.13713 0.0 0.0 0.0 48.3252 19.529 -8.86109 -30.3923 0.0288393 4.60973 34.8485 5.3205 -4.38374 -9.82852 0.0 0.0 -0.0 0.0 -0.0 40.5384 62.8502 -16.3875 -0.341416 -0.0139077 -0.0505479 39.0921 -2.33768 4.78377 39.5819 -0.0 -0.0 0.0 0.0 0.0 
3966.52 653.153 -391.28 -34.6598 40.0091 26.9474 10.3889 0.182323 -1.15065 10.3896 0.255168 -1.13672 10.383 0.289809 -1.12838 10.3813 0.107978 -1.15999 -21.2391 8.01503 0.393424 -21.6148 15.2687 3.94786 -0.0 0.0 -0.0 2.83555 7.00307 5.91039 -64.8271 -67.4087 49.194 0.41712 -11.6749 0.042645 -56.5697 -4.8595 4.98165 -1.32221 14.6493 -2.21824 -0.0 0.0 -0.0 13.3124 24.9429 -26.5222 -68.491 60.432 -33.3014 0.427583 11.9594 -0.0447878 -41.344 3.09521 -4.1555 -0.366081 5.97228 5.0078 0.0 0.0 0.0 48.6821 19.8581 -8.29028 -30.825 0.011585 4.67388 39.7767 5.07681 -4.83843 -13.9977 0.0 0.0 -0.0 0.0 -0.0 41.6633 63.5479 -17.1612 -1.4753 -0.057928 -0.218989 40.5878 -5.31997 4.90843 40.1484 -0.0 -0.0 0.0 0.0 0.0 
3965.04 652.625 -392.117 -34.6174 39.5816 26.7482 10.4106 0.271722 -1.08166 10.4112 0.339996 -1.06218 10.4037 0.371951 -1.05142 10.4022 0.201242 -1.09696 -21.2032 7.77239 -0.0705067 -21.567 15.0255 3.40291 -0.0 0.0 -0.0 2.34108 8.17416 5.10169 -63.7469 -67.3136 49.1252 0.428567 -11.9861 0.044992 -56.4941 -4.85024 4.97872 -1.38015 15.7635 -2.07008 -0.0 0.0 -0.0 13.2398 25.2429 -26.3198 -71.1373 60.9698 -30.2478 0.50985 14.1747 -0.0633911 -42.7361 3.24674 -4.25017 -0.365415 6.98138 5.43637 0.0 0.0 0.0 48.9714 19.5589 -8.10069 -31.3303 -0.0091818 4.74864 37.5307 10.6158 -4.65765 -14.383 0.0 0.0 -0.0 0.0 -0.0 42.5929 64.6764 -17.9322 -1.26066 -0.0498515 -0.187039 40.3491 -5.50229 4.88813 39.9637 -0.0 -0.0 0.0 0.0 0.0 
3961.83 649.327 -387.103 -35.1514 40.3317 27.8028 10.4058 0.178084 -1.06144 10.4064 0.245262 -1.04796 10.4006 0.276869 -1.04006 10.3991 0.109147 -1.07073 -20.6981 7.17223 -1.32021 -21.0196 14.4835 1.90676 -0.0 0.0 -0.0 0.988257 11.7842 3.05392 -59.8028 -70.6214 49.8811 0.336619 -9.46724 0.0278742 -58.8166 -5.13595 5.06282 -1.23933 13.8095 -2.08125 -0.0 0.0 -0.0 13.2172 26.3234 -26.1408 -72.0873 62.1106 -29.05 0.4808 13.397 -0.0564684 -44.0602 3.39295 -4.33678 -1.13355 3.53555 9.16003 0.0 0.0 0.0 47.9229 12.6362 -5.51056 -30.4827 0.0252769 4.62313 39.8908 18.7438 -4.9905 -17.0684 0.0 0.0 -0.0 0.0 -0.0 42.5793 64.4963 -17.8539 -2.58004 -0.0975989 -0.38389 40.924 -9.41643 4.95243 40.1454 -0.0 -0.0 0.0 0.0 0.0 
